<svg version="1.1" id="Layer_1" xmlns="http://www.w3.org/2000/svg" x="0" y="0" width="120" height="120" xml:space="preserve"><path d="M118.27 98.503v-.026s-22.666-22.64-22.68-22.651a4.541 4.541 0 00-6.439.012L78.718 86.314c-4.056 4.057-9.286.457-19.325-7.729-6.642-5.416-14.284-12.699-20.91-20.91-4.65-5.761-8.762-11.811-4.514-16.058.011-.011 10.476-10.449 10.474-10.46l.008-.022c1.878-1.878 1.696-4.755-.019-6.472v-.026L21.098 1.331c-1.797-1.797-4.67-1.757-6.439.012l-10.51 10.51c-4.33 5.419-13.953 31.246 27.302 73.534 43.46 44.551 71.504 35.021 76.332 29.994 0 0 10.499-10.375 10.499-10.385l.009-.021c1.878-1.879 1.693-4.754-.021-6.472z"/></svg>