<svg version="1.0" xmlns="http://www.w3.org/2000/svg" width="1542.667" height="1548" viewBox="0 0 1157 1161"><path d="M506.3 303.7c-3.2.6-8.3 6.8-8.3 10.1 0 3.5 3.3 8.8 5.9 9.7 1.8.5 2.1 1.4 2.1 6.8 0 5.9-.2 6.4-4.3 10.7-2.3 2.5-7.5 8.2-11.5 12.6l-7.2 8.2v80.1l-3 13.8c-1.7 7.6-6 27.7-9.5 44.8-3.5 17-9.6 46.3-13.5 65l-7.2 34 .2 36.2.1 36.3h-29.9l-14.7 15.5-14.7 15.5h-46.4l-1.3-3.5c-1.3-3.7-5.1-7-9.3-8-3.6-.9-9.3 2-11.8 6-8 12.9 11.1 26 19.5 13.4l2-2.9h19.8c15.9 0 19.7.3 19.7 1.4 0 .7-3.6 5.2-8.1 9.9-5.1 5.5-7.9 9.3-7.7 10.4.3 1.7 3.2 1.8 44.6 2.1l44.2.2v-24h66v27h68.8l20.3 9.5 20.3 9.5h8.5c4.7 0 10.3-.3 12.4-.6l3.7-.7V734h56.3l56.2.1 2 3.2c1.1 1.8 3.7 4 5.7 5 3.3 1.6 4 1.6 7.1.4 10-4.2 10.1-16.1.1-20.3-4.7-2-10.4.4-13 5.2l-1.9 3.4H656v-11h41.5c41 0 41.4 0 42.5 2.1.7 1.1 2.7 2.7 4.6 3.5 2.9 1.2 3.9 1.2 6.8 0 3.6-1.5 6.6-5.9 6.6-9.7 0-3.3-6.2-8.9-9.8-8.9-3.4 0-8.7 3.9-9.7 7-.6 1.9-1.8 2-41.6 2H656v-9.9l15.3-.3 15.2-.3v-58l-15.2-.3-15.3-.3V492.3l-9.5-9-9.5-9.1v-5.1c0-2.8.4-5.1 1-5.1 1.6 0 8-6.1 9.6-9.1 2-3.9 1.8-10.8-.5-14.5-2.2-3.5-7.4-7.8-10.9-8.9-6.1-1.8-15.3 2.8-18.8 9.6-3.6 7.1-.4 16.6 7.2 21.4 4.3 2.7 4.4 2.9 4.4 8.2 0 6.8-.8 8.3-8.4 16-9.1 9.5-9.6 9.1-9.6-7.1v-13.5l-6-4.2-6-4.2V424l-44-44-44-44.1v-5.4c0-5 .2-5.6 3-7 5.8-3 7.6-10.2 3.8-15-1.7-2.2-7.9-5.9-9-5.4-.2.1-1.3.4-2.5.6zm6.5 5.9c4.3 3 1.7 10.4-3.6 10.4-5.7 0-8.5-7.3-4-10.4 1.2-.9 2.9-1.6 3.8-1.6.9 0 2.6.7 3.8 1.6zm41.2 72.8l40 40v14.8c0 11.2-.3 14.8-1.2 14.8-.7 0-11.6-7.5-24.3-16.6-12.6-9.1-26-18.6-29.7-21.2l-6.7-4.7-.1-7.4c0-6.6.2-7.5 2.5-9.3 3.1-2.5 5.5-6.9 5.5-10.3 0-6.7-6.7-13.5-13.2-13.5-6.1 0-12.8 6.9-12.8 13.3 0 3.6 2.3 8 5.5 10.5 2.3 1.8 2.5 2.6 2.5 10.4 0 5.2-.5 8.9-1.2 9.6-.9.9-.9 1.2 0 1.2s1.2 32.8 1.2 144.5V703h-66.1l.3-13.3.3-13.2 27.3-.3 27.2-.2V422.1l3.8-3.7c2-2.1 2.5-2.8 1.1-1.6-1.4 1.2-3.1 2.2-3.7 2.2-.9 0-1.2-9.5-1.2-38.6 0-33.7.2-38.5 1.5-38.2.8.2 19.5 18.3 41.5 40.2zm-48 3.3v39.8l-7.2 7.2c-4 4-7.8 7.3-8.5 7.3-1 0-1.3-8-1.3-38.8v-38.7l7.3-8.2c3.9-4.5 7.8-8.2 8.5-8.3.9 0 1.2 8.6 1.2 39.7zm26.5-9.2c3.7 3.6 3.4 8.6-.6 11.9-3.4 2.9-5 3.2-8.2 1.4-3.3-1.7-4.6-3.9-4.7-7.6 0-4.3 3.8-8.2 8-8.2 1.9 0 4 .9 5.5 2.5zm-26.5 174V672h-50v-69.6l3.5-16.9c2-9.4 5.1-24.2 7-33 3.9-18.4 20-95.3 21.7-103.5 1-4.8 1.9-6.4 8.2-12.8 3.9-3.9 7.6-7.2 8.3-7.2 1.1 0 1.3 23.7 1.3 121.5zm132-113c5.5 2.8 7.9 12.3 4.4 17.3-6.7 9.5-21.4 4.9-21.4-6.8 0-9.2 8.9-14.7 17-10.5zm-9.5 155.1c.4 60.3.3 110-.1 110.4-.5.5-4.6.6-9.1.3l-8.3-.6V497.5l7.2-7.2c4-4 7.8-7.3 8.4-7.3.8 0 1.3 29 1.9 109.6zm-23.7 11.6l-.3 99.3h-5l-.3-96.9-.2-97 2.2-2.3c1.2-1.3 2.5-2.3 3-2.3.4 0 .7 44.7.6 99.2zm-10.8 6.3V705h11v15c0 9-.4 15-1 15-.5 0-3.5-1.1-6.6-2.5-5.6-2.5-5.8-2.5-35.5-2.5H532v-22h44.7l.6-35.3c.3-19.3.2-45.6-.3-58.2-.5-12.7-.9-36.2-1-52.4v-29.3l8.2-8.4c4.5-4.6 8.5-8.4 9-8.4.4 0 .8 42.5.8 94.5zm88.8 66.2l-.3 25.8-11 .3c-6 .2-12 0-13.2-.3l-2.3-.5v-51h27l-.2 25.7zM450 689.5V703h-26.5c-14.6 0-26.5-.3-26.5-.8 0-.4 5.4-6.4 12.1-13.5l12.1-12.7H450v13.5zm-110.6 7.6c2.5 2.8 2.8 3.7 2.3 7.8-.6 5.7-4.1 9.1-9.3 9.1-4.6 0-7-1.4-8.9-5-2.1-4.1-1.9-8.3.6-11.4 4.3-5.5 10.5-5.7 15.3-.5zm289.4 29.1l.2 19.8-2.2-.1c-1.3 0-5.2-1.5-8.8-3.2l-6.5-3.2-.3-16.8-.2-16.8 8.7.3 8.8.3.3 19.7zM450 717.5v9.5h-38c-20.9 0-38-.3-38-.6s3.7-4.6 8.3-9.5l8.2-8.9H450v9.5zm303.5-6c3 3 3.2 6.4.4 9.9-4.7 5.9-14.9 1.5-13.5-5.9 1.3-6.3 8.6-8.6 13.1-4zm31.4 13.5c2.5 1.3 4.5 6.4 3.7 9.5-2.5 9.8-17.6 8-17.6-2.2 0-6.5 7.8-10.6 13.9-7.3z"/><path d="M275.8 717.5c-1.4.8-3.6 3-4.7 4.9-7.4 12 7.2 25.9 17.9 16.9 1.7-1.4 3.6-3.7 4.1-5l.9-2.3h56v18h122.5c108.2 0 122.5-.2 122.5-1.5s-13.9-1.5-119.2-1.5c-65.6 0-119.8-.4-120.5-.8-.8-.5-1.3-4.1-1.5-9.7l-.3-9-29.6-.3-29.5-.2-1.7-3.5c-3.1-6.5-10.9-9.2-16.9-6zm12.4 4.2c5.1 5.4 3.8 13.9-2.5 16.9-9.9 4.7-18.4-7.9-11.1-16.5 2.1-2.6 3.3-3.1 6.8-3.1 3.3 0 4.8.6 6.8 2.7zm9.6 82c-.2 19.1-.4 34.9-.3 34.9 0 .1 15.8.4 35 .5l35 .4.3-3.3c.3-2.9.1-3.2-2.2-3.2H363v-63h-7l-.2 30.7-.3 30.8h-51v-62l-3.2-.3-3.1-.3-.4 34.8zm91.2-30.3v3.3l7.7.7c4.2.3 10.7.6 14.5.6h6.8v62.1l3.3-.3 3.2-.3.3-30.7.2-30.7 14.8-.3 14.7-.3v-6l-13-.6c-7.1-.4-21.9-.7-32.7-.8L389 770v3.4zm89.7-1.7c-.4.3-.7 6.7-.7 14.1 0 16 1 19.1 7.4 22.2 4 1.9 6 2 36.1 2h31.8l-.7 10.7c-.6 8.4-1.1 11.1-2.4 12.2-2.3 1.8-61.5.9-63.8-1-.8-.6-1.4-2.9-1.4-5 0-3.8-.1-3.9-3.5-3.9-3.5 0-3.5 0-3.5 4.6 0 4 .5 5.1 3.8 8.4 3.6 3.6 4.1 3.8 12.2 4.5 4.7.4 19.3.5 32.5.3 34.8-.5 32.8 1.9 33.3-39.6l.4-29.2H553v31.3l-33.1-.5c-27-.4-33.2-.7-34-1.9-.5-.8-.9-7.8-.9-15.7V771h-2.8c-1.6 0-3.2.3-3.5.7zm132.8 9.8c-2.5 5.2-6.6 13.9-9.1 19.2-2.6 5.4-7.9 16.9-11.9 25.5l-7.3 15.8h3.4c3.2 0 3.6-.4 7.3-7.8l3.9-7.8 25.4.3c13.9.3 25.8.6 26.3.8.6.1 2.4 3.5 4 7.4 2.8 7 2.8 7.1 6.6 7.1h3.8l-2.9-6.3c-4.7-10.3-16.4-36.4-22-49.2-2.9-6.6-5.7-12.6-6.3-13.3-.6-.8-3.7-1.2-8.9-1.2h-7.9l-4.4 9.5zm22.1 9.2c8.6 19.6 12.4 28.3 12.4 28.8 0 .7-17.6.6-31.8-.2-6.7-.3-12.2-1-12.2-1.5 0-.4 4-9.1 8.9-19.3l8.9-18.5h9l4.8 10.7zm68.4-17.8c-13.6 1.4-14.3 3.1-14.4 35.6-.1 24.2 0 25.1 2.1 28.6 3.8 6.1 4.6 6.2 38.2 6.7 20.2.3 31.7 0 34.1-.7 5.4-1.6 8.2-5.1 8.8-11.1l.5-5h-3.7c-3.5 0-3.6.1-3.6 4 0 6.3-.2 6.3-35.8 5.8-25.4-.4-31.6-.8-32.3-1.9-.5-.8-.9-12.9-.9-27 0-22.7.2-25.8 1.7-27 1.3-1.1 7.6-1.3 33.2-1.1 19.9.2 31.9.7 32.7 1.3.7.6 1.4 2.7 1.6 4.7.3 3.5.5 3.7 4.1 4 3.4.3 3.7.1 3.7-2.4 0-4.2-3.6-10.7-7-12.8-2.7-1.6-6.2-1.8-29.8-2.1-14.7-.2-29.6 0-33.2.4z"/></svg>