<svg version="1.0" xmlns="http://www.w3.org/2000/svg" width="1770.667" height="1913.333" viewBox="0 0 1328 1435"><path d="M548.5 274c-5.1 2.6-9.3 8.6-10.1 14.4-.9 6.6 2.9 14.1 9.1 17.8l4.5 2.8v15l-10.3 11.7c-5.7 6.5-14.3 16.1-19 21.3l-8.6 9.5-.1 65.7v65.7l-5 22.3c-2.8 12.3-7.9 36.5-11.5 53.8-3.5 17.3-7.3 35.8-8.4 41-10.6 49.7-14.1 66-17.1 81-1 5.2-3.2 15.8-4.9 23.5-9.1 43.1-8.3 36.6-7.1 57.9.5 10.5 1 36.1 1 56.8V872h-49.6l-20.5 21.2c-11.2 11.6-21.9 22.8-23.8 25l-3.3 3.8h-73.7l-1.1-4.1c-1.3-4.9-7.1-11.5-11.8-13.5-8.8-3.6-19.3-.3-24.8 7.8-6 8.9-5 19.9 2.3 26.9 5.2 5 7.9 6.2 14.3 6.3 7 .1 14-3.7 17.2-9.4l2.3-3.9 32.3-.3c17.7-.2 32.2-.1 32.2.2 0 .3-6.3 7.1-14 15.2-13.3 13.9-14 14.8-14 18.7v4.1h147v-38l52.8.2 52.7.3-.2 21.7-.3 21.8h112.8l20.4 9.6c11.1 5.3 25.5 12.1 31.8 15.1l11.5 5.5 16.5-.1c9.1-.1 19.1-.4 22.2-.7l5.7-.7.3-15.1.3-15.1 90.1-.3 90.2-.2 2.3 4.7c1.5 3 4 5.9 6.7 7.8 3.7 2.6 5.3 3 10.7 3 5.4 0 6.9-.4 10.7-3 8.1-5.8 10.8-14.6 6.9-23-7.2-15.6-28.9-15.1-35.6.8L979 968H798v-17h131.3l3.5 4.1c2 2.3 5.1 4.8 6.9 5.5 14.6 6.1 29.2-8.8 22.1-22.6-6.9-13.4-25.7-12.8-31.2 1l-1.6 4H798v-14h49v-98h-49V580.5l-16-16-16-16v-12.3l4.3-2.1c10.2-4.9 16.1-14.3 16.1-25.6.1-12.1-5.7-21-16.8-26.1-5.1-2.3-6.8-2.6-13.1-2.2-5.5.4-8.4 1.1-11.8 3.1-12.5 7.3-17.7 21.7-12.7 34.9 2.7 7.3 7 12.2 13.5 15.4l5.5 2.6v21.3L738.3 570l-12.8 12.5-.5-22.7-.5-22.7-10.2-7.6L704 522v-54.8l-71-71.1-71-71v-8.6c0-6.5.3-8.5 1.3-8.5 2.6 0 9.4-5.8 11.1-9.5 2.2-4.5 2.3-12.3.3-16.2-4.8-9.1-16.9-13-26.2-8.3zm12.4 8.1c3.2 1.1 6.1 5.2 6.1 8.8 0 1.1-1.2 3.3-2.6 5-2.2 2.6-3.3 3.1-7 3.1-6 0-9.4-3.2-9.4-8.8 0-5 2.9-7.9 9.1-9.1.3 0 2 .4 3.8 1zm68.5 118.8l66 65.9.1 24.2c.1 13.2-.1 24.2-.4 24.4-.3.2-8-5-17.1-11.6-17.5-12.6-18.4-13.3-32.5-23.4-13.3-9.6-19.3-13.9-26.1-18.6-3.3-2.4-10.2-7.2-15.2-10.8l-9.1-6.5-.1-10.9v-10.8l4.5-4c6.1-5.4 8.7-10.7 8.7-17.8 0-12.3-9.6-22-21.7-22-12.3 0-21.4 9.5-21.5 22.3 0 7.3 2.4 12.3 8.5 17.4l4.5 3.7v25.4l-6.9 6.1c-3.8 3.4-7.4 6.1-8 6.1-.8 0-1.1-17.2-1.1-62.5 0-34.4.3-62.5.8-62.5.4 0 30.4 29.7 66.6 65.9zm-90 82.7c-7 6.8-12.8 12.4-13 12.4-.2 0-.4-28.7-.4-63.8v-63.8l10.1-11.5c5.5-6.2 11.3-12.5 12.7-13.8l2.7-2.4.3 65.3.2 65.3-12.6 12.3zm52.1-94.2c7.9 3.3 9.9 14.6 3.8 20.8-3.5 3.5-10.2 4.7-14.3 2.6-3.4-1.9-7-7.5-7-11.2 0-4.7 3.1-9.9 7-11.8 4.3-2.2 6-2.2 10.5-.4zm-13.7 298.9l-.3 233.8-52.5.2-52.5.2-.3-21.3-.2-21.2h90V466.1l4.3-3.9c7.7-7.2 10.2-9.1 11-8.3.4.4.6 105.9.5 234.4zM552 674.5V872h-80V757.5l10.4-49.5c5.7-27.2 14.3-68 19.1-90.5 13.3-63.4 17.5-83 20-95.5 4.4-21.7 3.5-19.9 16.4-33.1 6.4-6.5 12.2-11.8 12.9-11.9.9 0 1.2 40.1 1.2 197.5zm211.5-184.4c9 2.3 14.9 12.4 13.1 22.3-2.6 13.8-20.7 19.5-30.9 9.8-4.3-4-5.7-7.5-5.7-13.8 0-9.3 5.3-16.3 14-18.5 3.9-1 4.8-1 9.5.2zM750.9 744l.2 179H725V588l11.6-11.5c6.4-6.3 12.2-11.5 12.9-11.5 1 0 1.3 37.6 1.4 179zm-38.1 178.5c-.2.1-2 .5-4 .8l-3.8.6V607.6l3.8-3.9 3.7-3.8.3 161.2c.1 88.7.1 161.3 0 161.4zm-17.3-150.4v153.4l9 .5 9 .5.3 24.7c.1 15.7-.1 24.8-.7 24.8s-5.8-2.2-11.7-5l-10.7-5H595v-35h72.8l.7-12.8c.4-7 .5-18.6.1-25.7-.4-7.2-.1-25.6.5-41 1-22 1-32.4 0-48.5-.7-11.3-1.6-50.9-2.1-88-.7-59.9-.6-67.8.8-70 2.3-3.8 25.6-27 26.7-26.6.7.2 1 52.3 1 153.7zM840 880.5V921h-42v-81h42v40.5zm-379 21V923h-42.9c-23.7 0-43.2-.4-43.5-.8-.3-.5 8.4-10.1 19.2-21.5l19.7-20.6h23.8l23.7-.1v21.5zm-185 8c7.8 4 10.9 13.8 7.1 21.9-5.8 11.8-21.6 12.1-27.7.4-2.1-4.1-1.8-12.4.6-16.4 4.2-6.7 13.2-9.4 20-5.9zm475 51.4v33l-3.7-1.6c-2.1-.8-8-3.5-13-5.9L725 982v-54h26v32.9zm-290.2-14.2l.3 15.3H399c-41.1 0-62-.3-62-1 0-.6 6.4-7.6 14.2-15.5l14.1-14.5 47.6.2 47.6.3.3 15.2zm493-11.1c1.3.9 3.1 3.2 3.9 5.2 1.3 3.2 1.4 4.2.2 7.7-4 11.4-19.8 11-22.9-.6-2.9-10.6 9.3-18.5 18.8-12.3zm53.6 24.8c8.6 6.5 6.5 19.2-3.8 23.1-11 4.2-22.3-5.9-18.7-16.8 3-9.1 14.6-12.4 22.5-6.3z"/><path d="M179.5 944.2c-4.3 1.5-10.4 7.6-12.6 12.6-6.3 14.5 4.4 31.2 20 31.2 8.8 0 16.1-4.8 19.7-13l1.8-4 44.5.2 44.6.3.3 14.8.3 14.7 199.7-.2 199.7-.3.3-3.8.3-3.7H306v-31h-97.8l-.6-3.3c-.8-4.5-7-11.5-12-13.8-4.5-2-11.4-2.3-16.1-.7zm15.4 7.6c10.2 7.5 9.5 23.5-1.2 28.6-8.9 4.2-19-.6-21.7-10.3-1.2-4.4-1.2-4.8 0-9.2 2.8-10 15.1-14.9 22.9-9.1zm-74.8 99.6c-.8.9-1 17.2-.9 58.7l.3 57.4 50.8.3c49.1.2 50.9.2 56.9-1.9 28.3-9.5 43.2-44.8 32.9-77.9-5.8-18.5-21.5-33.9-38-37-3.2-.6-25.1-1-53.1-1-39.1 0-48 .2-48.9 1.4zm61 8.5c11.6 4.4 22.2 16.3 26.9 30.1 3.1 8.9 3.8 24.2 1.6 33-4 15.9-12.8 27.5-25.4 33.7l-7.6 3.8-25.8.3-25.8.3V1058h25.5c22.7 0 26 .2 30.6 1.9z"/><path d="M243.2 1051.2c-1.8 1.8-1.4 4.6.7 5.8 1.2.6 10.4 1 23 1H288v53.7c0 29.6.4 54.4.8 55.1.7.9 6.5 1.2 25.8 1l24.9-.3.3-54.8.2-54.7h21.8c11.9 0 22.2-.4 22.8-.8 1.7-1.1 2.2-3.5 1.2-5.5-.8-1.6-5.2-1.7-71.1-1.7-53.4 0-70.6.3-71.5 1.2zm204.3-.3c-.3.6-11.1 26.3-24 57.2-18.3 44-23.2 56.7-22.4 58.1.9 1.7 2.8 1.8 25.3 1.8 18.3 0 24.6-.3 25.3-1.3.6-.6 11.5-26.4 24.3-57.1 17.4-41.9 23-56.4 22.3-57.5-.9-1.4-4.6-1.6-25.6-1.9-15.1-.1-24.8.1-25.2.7zm64.6.5c-.9 1.1-1.2 10.4-.9 36.3l.3 34.8 2.8 7.9c3.5 9.9 6.6 15.3 12.9 22.1 6.3 6.9 12.6 11.1 20.6 13.5 5.8 1.8 9.4 2 35.8 2 27.2 0 29.9-.2 35.6-2.1 19.3-6.5 32.7-24.9 35.8-49.1 1.3-10.9 1.3-62.3 0-64.9-1-1.8-2.4-1.9-25.5-1.9s-24.5.1-25.5 1.9c-.6 1.3-1 13.8-1 33.8 0 35-.4 38.4-6.1 50-4.5 9.3-11.6 16.6-20.7 21-7 3.5-8.3 3.8-16.2 3.8-7.7 0-9.2-.3-15.5-3.4-11.7-5.8-20.4-16.5-25.1-31.1-1.5-4.7-1.8-10.4-2.2-39.5-.3-32.1-.7-36.5-3.2-36.5-.4 0-1.3.6-1.9 1.4z"/><path d="M676.5 1051.9c-17.2 7.8-17.5 36.3-.5 44.8 4.1 2.1 5.8 2.3 21.8 2.3 10.5 0 19 .5 21.4 1.2 5.6 1.6 12.2 7.9 15.5 14.6 2.5 5 2.8 6.8 2.8 15.2 0 7.5-.4 10.4-2.1 14.1-2.8 6-7.8 11.5-12.8 14.2-3.9 2.1-5.5 2.2-40.1 2.7l-36 .5v6l58.5.3c64.2.3 62.2.4 70.8-5.8 19.6-14.2 19-51.1-1-64.8-6.9-4.7-9.8-5.2-28.4-5.2-20.8 0-24.1-.9-27.9-7.5-1.9-3.1-2.5-5.6-2.5-9.9 0-6.5 1.6-10.2 6-14l3.2-2.6H745c21.3 0 22.5-.3 21.8-5.2l-.3-2.3-43-.2c-39.9-.3-43.3-.1-47 1.6zm152.8-.7c-2.1 2.7-47.4 113-47.1 114.6.2 1 1.3 1.7 2.7 1.7 2.2 0 3.4-2.3 13.6-27l11.3-27 21.3-.3 21.4-.2 10.4 25.2c5.7 13.9 11 26.3 11.8 27.5 1.3 2.3 1.5 2.3 25.8 2.3 22.4 0 24.5-.1 25.4-1.8.7-1.4-4.5-14.7-22.8-58.7l-23.7-57-24.6-.3c-18.9-.2-24.8.1-25.5 1zm11 32.8l8.6 20.5-17.1.3c-9.4.1-17.3 0-17.6-.2-.3-.3 2.5-7.7 6.1-16.4 9.6-23.1 10.7-25.5 11.1-25.1.2.2 4.2 9.6 8.9 20.9zm116-32.5c-24.4 6.6-40.8 32.6-39 62 .9 15.4 6.2 28.4 15.9 39 6.3 6.9 12.6 11.1 20.6 13.5 5.8 1.8 9.4 2 35.8 2 27.2 0 29.9-.2 35.6-2.1 19.2-6.4 32.8-25 35.7-48.6 1-8.4.3-11.3-2.8-11.3-2.3 0-3.1 1.9-3.1 7.3-.1 10.9-5.6 24.7-13.4 33.4-24.6 27.3-64.2 12.5-71.2-26.7-2.4-13.4-.7-25.2 5.3-37.4 6.8-13.5 19.3-23.2 31.4-24.3 6.4-.6 8.2-1.9 7.7-5.5l-.3-2.3-26.5-.2c-20.2-.1-27.7.2-31.7 1.2zm143-.3c-2.1 2.7-47.4 113-47.1 114.6.3 1.6 5.5 1.7 71.3 2 65 .2 71.1.1 72.2-1.4.9-1.2.9-2.2.2-3.5-.9-1.8-3.3-1.9-45.3-2.1l-44.3-.3 9.8-23.5 9.8-23.5 23.3-.5 23.3-.5.3-2.4c.7-4.6-1.5-5.1-23-5.1-10.9 0-19.8-.3-19.8-.8 0-.4 4.2-10.8 9.4-23.2l9.4-22.5 10.8-.3c6.1-.1 11.4-.8 12.1-1.4.8-.6 1.3-2.3 1.1-3.7l-.3-2.6-36.1-.3c-28.2-.2-36.4.1-37.1 1zm-752.9 160c.3 1.3.6 7.4.6 13.5v11.3h11.8c7.8 0 12.2-.4 13-1.2 1.7-1.7 1.7-22.9 0-24.6-.8-.8-5.3-1.2-13.6-1.2-12.4 0-12.4 0-11.8 2.2zm24.1 11.3v10l-10.2.3-10.3.3v-21.2l10.3.3 10.2.3v10zm7.5 0c0 8.3.4 13.5 1 13.5s1-5.2 1-13.5-.4-13.5-1-13.5-1 5.2-1 13.5zm7.9-11.9c-1.5 1.8-1.9 22-.5 24.2 1 1.7 22.7 1.7 24.4 0 1.6-1.6 1.6-11 0-12.6-.7-.7-4.3-1.2-9-1.2-6.2 0-7.8.3-7.8 1.5 0 1.1 1.8 1.5 7.8 1.7l7.7.3v8l-10.8.3-10.8.3.3-10.3.3-10.3 10.3-.3c9.7-.3 10.4-.1 10.9 1.8.7 2.7 2.3 2.5 2.3-.3 0-4.1-1.7-4.7-13.1-4.7-8.6 0-10.9.3-12 1.6zm30.1 11.9c0 8.3.4 13.5 1 13.5s1-5.2 1-13.5-.4-13.5-1-13.5-1 5.2-1 13.5zm5-12c0 1.1 1.2 1.5 4.5 1.5h4.5v12c0 7.3.4 12 1 12s1-4.7 1-12v-12h4.5c3.3 0 4.5-.4 4.5-1.5 0-1.2-1.8-1.5-10-1.5s-10 .3-10 1.5zm26 .7c-2.2 5.3-9 23.3-9 24 0 2.1 2.7.5 3.7-2.2 1.1-3 1.2-3 9.1-3 8 0 8 0 9.1 3 .5 1.6 1.7 3 2.5 3 1.1 0 .3-2.9-3.1-11.8-2.5-6.4-4.9-12.5-5.4-13.5-1.4-2.5-5.7-2.2-6.9.5zm7.3 7.6c1.5 3.7 2.7 7.1 2.7 7.5 0 .4-3 .7-6.6.7-5.9 0-6.5-.2-6-1.8 3.7-9.8 5.3-13.2 6.2-13.2.6 0 2.3 3 3.7 6.8zm12.7 3.7v13.5h9c7.3 0 9-.3 9-1.5s-1.6-1.5-8-1.5h-8v-12c0-7.3-.4-12-1-12s-1 5.2-1 13.5zm32-12c0 1.1 1.2 1.5 4.5 1.5h4.5v12c0 7.3.4 12 1 12s1-4.7 1-12v-12h4.5c3.3 0 4.5-.4 4.5-1.5 0-1.2-1.8-1.5-10-1.5s-10 .3-10 1.5zm23 12v13.5h10c8.2 0 10-.3 10-1.5s-1.7-1.5-9-1.5h-9v-9h9c7.3 0 9-.3 9-1.5s-1.7-1.5-9-1.5h-9v-9h9c7.3 0 9-.3 9-1.5s-1.8-1.5-10-1.5h-10v13.5zm25.9-11.9c-1.5 1.8-1.9 22-.5 24.2 1 1.7 22.7 1.7 24.4 0 1.4-1.4 1.6-5.8.3-5.8-.5 0-1.1.9-1.4 2-.5 1.8-1.4 2-11.1 2h-10.7l.3-10.3.3-10.2 10.3-.3c9.7-.3 10.4-.1 10.9 1.8.7 2.7 2.3 2.5 2.3-.3 0-4.1-1.7-4.7-13.1-4.7-8.6 0-10.9.3-12 1.6zm29.1 11.9c0 8.3.4 13.5 1 13.5s1-2.7 1-6v-6h21v6c0 4.7.3 6 1.5 6 1.3 0 1.5-2.2 1.5-13.5s-.2-13.5-1.5-13.5c-1.2 0-1.5 1.3-1.5 6v6h-21v-6c0-3.3-.4-6-1-6s-1 5.2-1 13.5zm30-.1c0 17.2 1.8 18.4 2.2 1.5l.3-12.1 9.4 12.1c7.3 9.5 9.9 12.1 11.7 12.1h2.4v-13.5c0-11.2-.2-13.5-1.5-13.5-1.2 0-1.5 2.2-1.7 12.1l-.3 12-9-11.8c-6.1-7.9-9.8-11.9-11.3-12.1-2.2-.3-2.2-.2-2.2 13.2zm31.9-11.8c-1.5 1.8-1.9 22-.5 24.2 1 1.7 22.7 1.7 24.4 0 .8-.8 1.2-5 1.2-12.3 0-7.3-.4-11.5-1.2-12.3-.8-.8-4.9-1.2-11.9-1.2-8.6 0-10.9.3-12 1.6zm22.6 11.9v10l-10.7.3-10.8.3v-9.9c0-5.4.3-10.2.7-10.6.4-.4 5.2-.5 10.7-.4l10.1.3v10zm7.5 0v13.5h9c7.3 0 9-.3 9-1.5s-1.6-1.5-8-1.5h-8v-12c0-7.3-.4-12-1-12s-1 5.2-1 13.5zm20.9-11.9c-1.5 1.8-1.9 22-.5 24.2 1 1.7 22.7 1.7 24.4 0 .8-.8 1.2-5 1.2-12.3 0-7.3-.4-11.5-1.2-12.3-.8-.8-4.9-1.2-11.9-1.2-8.6 0-10.9.3-12 1.6zm22.6 11.9v10l-10.7.3-10.8.3v-9.9c0-5.4.3-10.2.7-10.6.4-.4 5.2-.5 10.7-.4l10.1.3v10zm8.4-11.9c-1.5 1.8-1.9 22-.5 24.2 1 1.7 22.7 1.7 24.4 0 .7-.7 1.2-3.5 1.2-6.3s-.5-5.6-1.2-6.3c-.7-.7-4.3-1.2-9-1.2-6.2 0-7.8.3-7.8 1.5 0 1.1 1.8 1.5 7.8 1.7l7.7.3v8l-10.8.3-10.8.3.3-10.3.3-10.3 10.3-.3c9.7-.3 10.4-.1 10.9 1.8.7 2.7 2.3 2.5 2.3-.3 0-4.1-1.7-4.7-13.1-4.7-8.6 0-10.9.3-12 1.6zm30.1 11.9c0 8.3.4 13.5 1 13.5s1-5.2 1-13.5-.4-13.5-1-13.5-1 5.2-1 13.5zm7 0v13.5h10c8.2 0 10-.3 10-1.5s-1.7-1.5-9-1.5h-9v-9h9c7.3 0 9-.3 9-1.5s-1.7-1.5-9-1.5h-9v-9h9c7.3 0 9-.3 9-1.5s-1.8-1.5-10-1.5h-10v13.5zm24-11.6c-1.4 2.7-1.3 9.4.3 11.4 1 1.3 3.3 1.7 11.7 1.9l10.5.3v8l-10.2.3c-9.8.3-10.3.2-10.3-1.8 0-1.1-.7-2-1.5-2-1.7 0-2 2.3-.5 5.1 1 1.7 2.2 1.9 11.8 1.9 7.1 0 11.2-.4 12-1.2.7-.7 1.2-3.5 1.2-6.3s-.5-5.6-1.2-6.3c-.8-.8-4.8-1.2-11.5-1.2H784v-9h10.1c9.2 0 10.1.2 10.6 2 .7 2.7 2.3 2.5 2.3-.3 0-4.1-1.7-4.7-13.2-4.7-9.6 0-10.8.2-11.8 1.9zm44 11.6c0 8.3.4 13.5 1 13.5s1-2.7 1-6v-6h8.5c6.9 0 8.5-.3 8.5-1.5s-1.6-1.5-8.5-1.5H828v-9h9c7.3 0 9-.3 9-1.5s-1.8-1.5-10-1.5h-10v13.5zm23.9-11.9c-1.5 1.8-1.9 22-.5 24.2 1 1.7 22.7 1.7 24.4 0 .8-.8 1.2-5 1.2-12.3 0-7.3-.4-11.5-1.2-12.3-.8-.8-4.9-1.2-11.9-1.2-8.6 0-10.9.3-12 1.6zm22.6 11.9v10l-10.7.3-10.8.3v-9.9c0-5.4.3-10.2.7-10.6.4-.4 5.2-.5 10.7-.4l10.1.3v10zm7.5 0c0 8.3.4 13.5 1 13.5s1-2.3 1-5v-5h3.5c2.8 0 4.9 1.1 9.6 5 3.3 2.7 7 5 8.2 5 2.2-.1 2.2-.1-.3-2.3-1.4-1.2-4.1-3.4-6-4.9l-3.5-2.8h4.1c2.2 0 4.5-.5 5.2-1.2 1.6-1.6 1.6-13 0-14.6-.8-.8-4.9-1.2-12-1.2H880v13.5zm21.5-5v5h-19l-.3-5.3-.3-5.3 9.8.3 9.8.3v5zM301 1261.3c0 8.2.4 12.7 1.2 13.5 1.6 1.6 22 1.6 23.6 0 .8-.8 1.2-5.3 1.2-13.5 0-15.9-1.8-16.4-2.2-.6l-.3 11.8h-21l-.3-11.8c-.4-15.8-2.2-15.3-2.2.6zm31 1.2c0 8.3.4 13.5 1 13.5s1-2.3 1-5v-5h3.5c2.8 0 4.9 1.1 9.6 5 3.3 2.7 7 5 8.2 5 2.2-.1 2.2-.1-.3-2.3-1.4-1.2-4.1-3.4-6-4.9l-3.5-2.8h4c2.3 0 4.6-.5 5.3-1.2.7-.7 1.2-3.9 1.2-7.3s-.5-6.6-1.2-7.3c-.8-.8-4.9-1.2-12-1.2H332v13.5zm21.5-5v5h-19l-.3-5.3-.3-5.3 9.8.3 9.8.3v5zm6.5 5v13.5h12c10.8 0 12-.2 13-1.9 1.3-2.5 1.3-11.8 0-12.6-.5-.3-1-2.8-1-5.4 0-2.6-.5-5.2-1.2-5.9-.8-.8-4.9-1.2-12-1.2H360v13.5zm21.5-7v3l-9.7.3-9.8.3v-7.2l9.8.3 9.7.3v3zm1.3 12.2l.3 5.3H362v-4.8c0-2.7.3-5.2.7-5.6.4-.4 5-.5 10.3-.4l9.5.3.3 5.2zm14.2-16.5c-2.2 5.3-9 23.3-9 24 0 2.1 2.7.5 3.7-2.2 1.1-3 1.2-3 9.1-3 8 0 8 0 9.1 3 .5 1.6 1.7 3 2.5 3 1.1 0 .3-2.9-3.1-11.8-2.5-6.4-4.9-12.5-5.4-13.5-1.4-2.5-5.7-2.2-6.9.5zm7.3 7.6c1.5 3.7 2.7 7.1 2.7 7.5 0 .4-3 .7-6.6.7-5.9 0-6.5-.2-6-1.8 3.7-9.8 5.3-13.2 6.2-13.2.6 0 2.3 3 3.7 6.8zm12.7 3.6c0 17.2 1.8 18.4 2.2 1.5l.3-12.1 9.4 12.1c7.3 9.5 9.9 12.1 11.7 12.1h2.4v-13.5c0-11.2-.2-13.5-1.5-13.5-1.2 0-1.5 2.2-1.7 12.1l-.3 12-9-11.8c-6.1-7.9-9.8-11.9-11.3-12.1-2.2-.3-2.2-.2-2.2 13.2zm43-11.5c-1.4 2.7-1.3 9.4.3 11.4 1 1.3 3.3 1.7 11.7 1.9l10.5.3v8l-10.2.3c-9.8.3-10.3.2-10.3-1.8 0-1.1-.7-2-1.5-2-1.7 0-2 2.3-.5 5.1 1 1.7 2.2 1.9 11.8 1.9 7.1 0 11.2-.4 12-1.2 1.6-1.6 1.6-11 0-12.6-.8-.8-4.8-1.2-11.5-1.2H462v-9h10.1c9.2 0 10.1.2 10.6 2 .7 2.7 2.3 2.5 2.3-.3 0-4.1-1.7-4.7-13.2-4.7-9.6 0-10.8.2-11.8 1.9zm28-.4c0 1.1 1.2 1.5 4.5 1.5h4.5v12c0 7.3.4 12 1 12s1-4.7 1-12v-12h4.5c3.3 0 4.5-.4 4.5-1.5 0-1.2-1.8-1.5-10-1.5s-10 .3-10 1.5zm23 10.8c0 8.2.4 12.7 1.2 13.5 1.6 1.6 22 1.6 23.6 0 .8-.8 1.2-5.3 1.2-13.5 0-15.9-1.8-16.4-2.2-.6l-.3 11.8h-21l-.3-11.8c-.4-15.8-2.2-15.3-2.2.6zm30.4-10.1c.3 1.3.6 7.4.6 13.5v11.3h11.8c7.8 0 12.2-.4 13-1.2.8-.8 1.2-5 1.2-12.3 0-7.3-.4-11.5-1.2-12.3-.8-.8-5.3-1.2-13.6-1.2-12.4 0-12.4 0-11.8 2.2zm24.1 11.3v10l-10.2.3-10.3.3v-21.2l10.3.3 10.2.3v10zm7.5 0c0 8.3.4 13.5 1 13.5s1-5.2 1-13.5-.4-13.5-1-13.5-1 5.2-1 13.5zm7 0v13.5h10c8.2 0 10-.3 10-1.5s-1.7-1.5-9-1.5h-9v-9h9c7.3 0 9-.3 9-1.5s-1.7-1.5-9-1.5h-9v-9h9c7.3 0 9-.3 9-1.5s-1.8-1.5-10-1.5h-10v13.5zm25-11.6c-1.4 2.7-1.3 9.4.3 11.4 1 1.3 3.3 1.7 11.7 1.9l10.5.3v8l-10.2.3c-9.8.3-10.3.2-10.3-1.8 0-1.1-.7-2-1.5-2-1.7 0-2 2.3-.5 5.1 1 1.7 2.2 1.9 11.8 1.9 7.1 0 11.2-.4 12-1.2.7-.7 1.2-3.5 1.2-6.3s-.5-5.6-1.2-6.3c-.8-.8-4.8-1.2-11.5-1.2H607v-9h10.1c9.2 0 10.1.2 10.6 2 .7 2.7 2.3 2.5 2.3-.3 0-4.1-1.7-4.7-13.2-4.7-9.6 0-10.8.2-11.8 1.9zm53 .3c-2.2 5.3-9 23.3-9 24 0 2.1 2.7.5 3.7-2.2 1.1-3 1.2-3 9.1-3 8 0 8 0 9.1 3 .5 1.6 1.7 3 2.5 3 1.1 0 .3-2.9-3.1-11.8-2.5-6.4-4.9-12.5-5.4-13.5-1.4-2.5-5.7-2.2-6.9.5zm7.3 7.6c1.5 3.7 2.7 7.1 2.7 7.5 0 .4-3 .7-6.6.7-5.9 0-6.5-.2-6-1.8 3.7-9.8 5.3-13.2 6.2-13.2.6 0 2.3 3 3.7 6.8zm12.7 3.7c0 8.3.4 13.5 1 13.5s1-2.3 1-5v-5h3.5c2.8 0 4.9 1.1 9.6 5 3.3 2.7 7 5 8.2 5 2.2-.1 2.2-.1-.3-2.3-1.4-1.2-4.1-3.4-6-4.9l-3.5-2.8h4.1c2.2 0 4.5-.5 5.2-1.2 1.6-1.6 1.6-13 0-14.6-.8-.8-4.9-1.2-12-1.2H678v13.5zm21.5-5v5h-19l-.3-5.3-.3-5.3 9.8.3 9.8.3v5zm7.4-6.9c-1.5 1.8-1.9 22-.5 24.2 1 1.7 22.7 1.7 24.4 0 1.4-1.4 1.6-5.8.3-5.8-.5 0-1.1.9-1.4 2-.5 1.8-1.4 2-11.1 2h-10.7l.3-10.3.3-10.2 10.3-.3c9.7-.3 10.4-.1 10.9 1.8.7 2.7 2.3 2.5 2.3-.3 0-4.1-1.7-4.7-13.1-4.7-8.6 0-10.9.3-12 1.6zm30.1 11.9c0 8.3.4 13.5 1 13.5s1-2.7 1-6v-6h21v6c0 4.7.3 6 1.5 6 1.3 0 1.5-2.2 1.5-13.5s-.2-13.5-1.5-13.5c-1.2 0-1.5 1.3-1.5 6v6h-21v-6c0-3.3-.4-6-1-6s-1 5.2-1 13.5zm30 0c0 8.3.4 13.5 1 13.5s1-5.2 1-13.5-.4-13.5-1-13.5-1 5.2-1 13.5zm5-12c0 1.1 1.2 1.5 4.5 1.5h4.5v12c0 7.3.4 12 1 12s1-4.7 1-12v-12h4.5c3.3 0 4.5-.4 4.5-1.5 0-1.2-1.8-1.5-10-1.5s-10 .3-10 1.5zm23 12v13.5h10c8.2 0 10-.3 10-1.5s-1.7-1.5-9-1.5h-9v-9h9c7.3 0 9-.3 9-1.5s-1.7-1.5-9-1.5h-9v-9h9c7.3 0 9-.3 9-1.5s-1.8-1.5-10-1.5h-10v13.5zm25.9-11.9c-1.5 1.8-1.9 22-.5 24.2 1 1.7 22.7 1.7 24.4 0 1.4-1.4 1.6-5.8.3-5.8-.5 0-1.1.9-1.4 2-.5 1.8-1.4 2-11.1 2h-10.7l.3-10.3.3-10.2 10.3-.3c9.7-.3 10.4-.1 10.9 1.8.7 2.7 2.3 2.5 2.3-.3 0-4.1-1.7-4.7-13.1-4.7-8.6 0-10.9.3-12 1.6zm27.1-.1c0 1.1 1.2 1.5 4.5 1.5h4.5v12c0 7.3.4 12 1 12s1-4.7 1-12v-12h4.5c3.3 0 4.5-.4 4.5-1.5 0-1.2-1.8-1.5-10-1.5s-10 .3-10 1.5zm23 10.8c0 8.2.4 12.7 1.2 13.5 1.6 1.6 22 1.6 23.6 0 .8-.8 1.2-5.3 1.2-13.5 0-15.9-1.8-16.4-2.2-.6l-.3 11.8h-21l-.3-11.8c-.4-15.8-2.2-15.3-2.2.6zm31 1.2c0 8.3.4 13.5 1 13.5s1-2.3 1-5v-5h3.5c2.8 0 4.9 1.1 9.6 5 3.3 2.7 7 5 8.2 5 2.2-.1 2.2-.1-.3-2.3-1.4-1.2-4.1-3.4-6-4.9l-3.5-2.8h4.1c2.2 0 4.5-.5 5.2-1.2 1.6-1.6 1.6-13 0-14.6-.8-.8-4.9-1.2-12-1.2H902v13.5zm21.5-5v5h-19l-.3-5.3-.3-5.3 9.8.3 9.8.3v5zm6.5 5v13.5h10c8.2 0 10-.3 10-1.5s-1.7-1.5-9-1.5h-9v-9h9c7.3 0 9-.3 9-1.5s-1.7-1.5-9-1.5h-9v-9h9c7.3 0 9-.3 9-1.5s-1.8-1.5-10-1.5h-10v13.5zm-298 13.1c0 1.4.4 2.3 1 1.9.6-.3 1-1.5 1-2.6 0-1-.4-1.9-1-1.9-.5 0-1 1.2-1 2.6zm-227 16.6c-2.2 5.3-9 23.3-9 24 0 2.1 2.7.5 3.7-2.2 1.1-3 1.2-3 9.1-3 8 0 8 0 9.1 3 .5 1.6 1.7 3 2.5 3 1.1 0 .3-2.9-3.1-11.8-2.5-6.4-4.9-12.5-5.4-13.5-1.4-2.5-5.7-2.2-6.9.5zm7.3 7.6c1.5 3.7 2.7 7.1 2.7 7.5 0 .4-3 .7-6.6.7-5.9 0-6.5-.2-6-1.8 3.7-9.8 5.3-13.2 6.2-13.2.6 0 2.3 3 3.7 6.8zm12.7 3.6c0 17.2 1.8 18.4 2.2 1.5l.3-12.1 9.4 12.1c7.3 9.5 9.9 12.1 11.7 12.1h2.4v-13.5c0-11.2-.2-13.5-1.5-13.5-1.2 0-1.5 2.2-1.7 12.1l-.3 12-9-11.8c-6.1-7.9-9.8-11.9-11.3-12.1-2.2-.3-2.2-.2-2.2 13.2zm29.4-11.2c.3 1.3.6 7.4.6 13.5v11.3h11.8c7.8 0 12.2-.4 13-1.2 1.7-1.7 1.7-22.9 0-24.6-.8-.8-5.3-1.2-13.6-1.2-12.4 0-12.4 0-11.8 2.2zm24.1 11.3v10l-10.2.3-10.3.3v-21.2l10.3.3 10.2.3v10zm22.4-11.9c-1.5 1.8-1.9 22-.5 24.2 1 1.7 22.7 1.7 24.4 0 1.4-1.4 1.6-5.8.3-5.8-.5 0-1.1.9-1.4 2-.5 1.8-1.4 2-11.1 2h-10.7l.3-10.3.3-10.2 10.3-.3c9.7-.3 10.4-.1 10.9 1.8.7 2.7 2.3 2.5 2.3-.3 0-4.1-1.7-4.7-13.1-4.7-8.6 0-10.9.3-12 1.6zm29.1 11.9c0 8.3.4 13.5 1 13.5s1-5.2 1-13.5-.4-13.5-1-13.5-1 5.2-1 13.5zm5-12.8c0 .4 2.1 6.4 4.8 13.3 6.3 16.6 6.9 16.6 13.4-.4 2.7-7 4.7-13.1 4.4-13.3-1.2-1.2-2.7 1.5-6.7 11.7-2.3 6.1-4.4 10.8-4.7 10.5-.3-.3-2.4-5.3-4.6-11.2-2.3-5.9-4.7-10.8-5.3-11.1-.7-.2-1.3 0-1.3.5zm26 12.8c0 8.3.4 13.5 1 13.5s1-5.2 1-13.5-.4-13.5-1-13.5-1 5.2-1 13.5zm7 0v13.5h9c7.3 0 9-.3 9-1.5s-1.6-1.5-8-1.5h-8v-12c0-7.3-.4-12-1-12s-1 5.2-1 13.5zm34 0v13.5h10c8.2 0 10-.3 10-1.5s-1.7-1.5-9-1.5h-9v-9h9c7.3 0 9-.3 9-1.5s-1.7-1.5-9-1.5h-9v-9h9c7.3 0 9-.3 9-1.5s-1.8-1.5-10-1.5h-10v13.5zm24-.1c0 17.2 1.8 18.4 2.2 1.5l.3-12.1 9.4 12.1c7.3 9.5 9.9 12.1 11.7 12.1h2.4v-13.5c0-11.2-.2-13.5-1.5-13.5-1.2 0-1.5 2.2-1.7 12.1l-.3 12-9-11.8c-6.1-7.9-9.8-11.9-11.3-12.1-2.2-.3-2.2-.2-2.2 13.2zm31.9-11.8c-1.5 1.8-1.9 22-.5 24.2 1 1.7 22.7 1.7 24.4 0 .7-.7 1.2-3.5 1.2-6.3s-.5-5.6-1.2-6.3c-.7-.7-4.3-1.2-9-1.2-6.2 0-7.8.3-7.8 1.5 0 1.1 1.8 1.5 7.8 1.7l7.7.3v8l-10.8.3-10.8.3.3-10.3.3-10.3 10.3-.3c9.7-.3 10.4-.1 10.9 1.8.7 2.7 2.3 2.5 2.3-.3 0-4.1-1.7-4.7-13.1-4.7-8.6 0-10.9.3-12 1.6zm29.1 11.9c0 8.3.4 13.5 1 13.5s1-5.2 1-13.5-.4-13.5-1-13.5-1 5.2-1 13.5zm7-.1c0 17.2 1.8 18.4 2.2 1.5l.3-12.1 9.4 12.1c7.3 9.5 9.9 12.1 11.7 12.1h2.4v-13.5c0-11.2-.2-13.5-1.5-13.5-1.2 0-1.5 2.2-1.7 12.1l-.3 12-9-11.8c-6.1-7.9-9.8-11.9-11.3-12.1-2.2-.3-2.2-.2-2.2 13.2zm31 .1v13.5h10c8.2 0 10-.3 10-1.5s-1.7-1.5-9-1.5h-9v-9h9c7.3 0 9-.3 9-1.5s-1.7-1.5-9-1.5h-9v-9h9c7.3 0 9-.3 9-1.5s-1.8-1.5-10-1.5h-10v13.5zm24 0v13.5h10c8.2 0 10-.3 10-1.5s-1.7-1.5-9-1.5h-9v-9h9c7.3 0 9-.3 9-1.5s-1.7-1.5-9-1.5h-9v-9h9c7.3 0 9-.3 9-1.5s-1.8-1.5-10-1.5h-10v13.5zm25 0c0 8.3.4 13.5 1 13.5s1-2.3 1-5v-5h3.5c2.8 0 4.9 1.1 9.6 5 3.3 2.7 7 5 8.2 5 2.2-.1 2.2-.1-.3-2.3-1.4-1.2-4.1-3.4-6-4.9l-3.5-2.8h4.1c2.2 0 4.5-.5 5.2-1.2.7-.7 1.2-3.9 1.2-7.3s-.5-6.6-1.2-7.3c-.8-.8-4.9-1.2-12-1.2H774v13.5zm21.5-5v5h-19l-.3-5.3-.3-5.3 9.8.3 9.8.3v5zm7.5 5c0 8.3.4 13.5 1 13.5s1-5.2 1-13.5-.4-13.5-1-13.5-1 5.2-1 13.5zm7-.1c0 17.2 1.8 18.4 2.2 1.5l.3-12.1 9.4 12.1c7.3 9.5 9.9 12.1 11.7 12.1h2.4v-13.5c0-11.2-.2-13.5-1.5-13.5-1.2 0-1.5 2.2-1.7 12.1l-.3 12-9-11.8c-6.1-7.9-9.8-11.9-11.3-12.1-2.2-.3-2.2-.2-2.2 13.2zm30.9-11.8c-1.5 1.8-1.9 22-.5 24.2 1 1.7 22.7 1.7 24.4 0 .7-.7 1.2-3.5 1.2-6.3s-.5-5.6-1.2-6.3c-.7-.7-4.3-1.2-9-1.2-6.2 0-7.8.3-7.8 1.5 0 1.1 1.8 1.5 7.8 1.7l7.7.3v8l-10.8.3-10.8.3.3-10.3.3-10.3 10.3-.3c9.7-.3 10.4-.1 10.9 1.8.7 2.7 2.3 2.5 2.3-.3 0-4.1-1.7-4.7-13.1-4.7-8.6 0-10.9.3-12 1.6z"/></svg>