<?xml version="1.0" standalone="no"?>
<!DOCTYPE svg PUBLIC "-//W3C//DTD SVG 20010904//EN"
 "http://www.w3.org/TR/2001/REC-SVG-20010904/DTD/svg10.dtd">
<svg version="1.0" xmlns="http://www.w3.org/2000/svg"
 width="1157.000000pt" height="1161.000000pt" viewBox="0 0 1157.000000 1161.000000"
 preserveAspectRatio="xMidYMid meet">

<g transform="translate(0.000000,1161.000000) scale(0.100000,-0.100000)"
fill="#000000" stroke="none">
<path d="M5063 8573 c-32 -6 -83 -68 -83 -101 0 -35 33 -88 59 -97 18 -5 21
-14 21 -68 0 -59 -2 -64 -43 -107 -23 -25 -75 -82 -115 -126 l-72 -82 0 -401
0 -400 -30 -138 c-17 -76 -60 -277 -95 -448 -35 -170 -96 -463 -135 -650 l-72
-340 2 -362 1 -363 -149 0 -150 0 -147 -155 -147 -155 -232 0 -232 0 -13 35
c-13 37 -51 70 -93 80 -36 9 -93 -20 -118 -60 -80 -129 111 -260 195 -134 l20
29 198 0 c159 0 197 -3 197 -14 0 -7 -36 -52 -81 -99 -51 -55 -79 -93 -77
-104 3 -17 32 -18 446 -21 l442 -2 0 120 0 120 330 0 330 0 0 -135 0 -135 344
0 344 0 203 -95 203 -95 85 0 c47 0 103 3 124 6 l37 7 0 93 0 94 563 0 562 -1
20 -32 c11 -18 37 -40 57 -50 33 -16 40 -16 71 -4 100 42 101 161 1 203 -47
20 -104 -4 -130 -52 l-19 -34 -562 0 -563 0 0 55 0 55 415 0 c410 0 414 0 425
-21 7 -11 27 -27 46 -35 29 -12 39 -12 68 0 36 15 66 59 66 97 0 33 -62 89
-98 89 -34 0 -87 -39 -97 -70 -6 -19 -18 -20 -416 -20 l-409 0 0 50 0 49 153
3 152 3 0 290 0 290 -152 3 -153 3 0 773 0 773 -95 90 -95 91 0 51 c0 28 4 51
10 51 16 0 80 61 96 91 20 39 18 108 -5 145 -22 35 -74 78 -109 89 -61 18
-153 -28 -188 -96 -36 -71 -4 -166 72 -214 43 -27 44 -29 44 -82 0 -68 -8 -83
-84 -160 -91 -95 -96 -91 -96 71 l0 135 -60 42 -60 42 0 168 0 169 -440 440
-440 441 0 54 c0 50 2 56 30 70 58 30 76 102 38 150 -17 22 -79 59 -90 54 -2
-1 -13 -4 -25 -6z m65 -59 c43 -30 17 -104 -36 -104 -57 0 -85 73 -40 104 12
9 29 16 38 16 9 0 26 -7 38 -16z m412 -728 l400 -400 0 -148 c0 -112 -3 -148
-12 -148 -7 0 -116 75 -243 166 -126 91 -260 186 -297 212 l-67 47 -1 74 c0
66 2 75 25 93 31 25 55 69 55 103 0 67 -67 135 -132 135 -61 0 -128 -69 -128
-133 0 -36 23 -80 55 -105 23 -18 25 -26 25 -104 0 -52 -5 -89 -12 -96 -9 -9
-9 -12 0 -12 9 0 12 -328 12 -1445 l0 -1445 -330 0 -331 0 3 133 3 132 273 3
272 2 0 1270 0 1269 38 37 c20 21 25 28 11 16 -14 -12 -31 -22 -37 -22 -9 0
-12 95 -12 386 0 337 2 385 15 382 8 -2 195 -183 415 -402z m-480 -33 l0 -398
-72 -72 c-40 -40 -78 -73 -85 -73 -10 0 -13 80 -13 388 l0 387 73 82 c39 45
78 82 85 83 9 0 12 -86 12 -397z m265 92 c37 -36 34 -86 -6 -119 -34 -29 -50
-32 -82 -14 -33 17 -46 39 -47 76 0 43 38 82 80 82 19 0 40 -9 55 -25z m-265
-1740 l0 -1215 -250 0 -250 0 0 348 0 348 35 169 c20 94 51 242 70 330 39 184
200 953 217 1035 10 48 19 64 82 128 39 39 76 72 83 72 11 0 13 -237 13 -1215z
m1320 1130 c55 -28 79 -123 44 -173 -67 -95 -214 -49 -214 68 0 92 89 147 170
105z m-95 -1551 c4 -603 3 -1100 -1 -1104 -5 -5 -46 -6 -91 -3 l-83 6 0 1026
0 1026 72 72 c40 40 78 73 84 73 8 0 13 -290 19 -1096z m-237 -116 l-3 -993
-25 0 -25 0 -3 969 -2 970 22 23 c12 13 25 23 30 23 4 0 7 -447 6 -992z m-108
-63 l0 -945 55 0 55 0 0 -150 c0 -90 -4 -150 -10 -150 -5 0 -35 11 -66 25 -56
25 -58 25 -355 25 l-299 0 0 110 0 110 223 0 224 0 6 353 c3 193 2 456 -3 582
-5 127 -9 362 -10 524 l0 293 82 84 c45 46 85 84 90 84 4 0 8 -425 8 -945z
m888 -662 l-3 -258 -110 -3 c-60 -2 -120 0 -132 3 l-23 5 0 255 0 255 135 0
135 0 -2 -257z m-2328 -128 l0 -135 -265 0 c-146 0 -265 3 -265 8 0 4 54 64
121 135 l121 127 144 0 144 0 0 -135z m-1106 -76 c25 -28 28 -37 23 -78 -6
-57 -41 -91 -93 -91 -46 0 -70 14 -89 50 -21 41 -19 83 6 114 43 55 105 57
153 5z m2894 -291 l2 -198 -22 1 c-13 0 -52 15 -88 32 l-65 32 -3 168 -2 168
87 -3 88 -3 3 -197z m-1788 87 l0 -95 -380 0 c-209 0 -380 3 -380 6 0 3 37 46
83 95 l82 89 298 0 297 0 0 -95z m3035 60 c30 -30 32 -64 4 -99 -47 -59 -149
-15 -135 59 13 63 86 86 131 40z m314 -135 c25 -13 45 -64 37 -95 -25 -98
-176 -80 -176 22 0 65 78 106 139 73z"/>
<path d="M2758 4435 c-14 -8 -36 -30 -47 -49 -74 -120 72 -259 179 -169 17 14
36 37 41 50 l9 23 280 0 280 0 0 -90 0 -90 1225 0 c1082 0 1225 2 1225 15 0
13 -139 15 -1192 15 -656 0 -1198 4 -1205 8 -8 5 -13 41 -15 97 l-3 90 -296 3
-295 2 -17 35 c-31 65 -109 92 -169 60z m124 -42 c51 -54 38 -139 -25 -169
-99 -47 -184 79 -111 165 21 26 33 31 68 31 33 0 48 -6 68 -27z"/>
<path d="M2978 3573 c-2 -191 -4 -349 -3 -349 0 -1 158 -4 350 -5 l350 -4 3
33 c3 29 1 32 -22 32 l-26 0 0 315 0 315 -35 0 -35 0 -2 -307 -3 -308 -255 0
-255 0 0 310 0 310 -32 3 -31 3 -4 -348z"/>
<path d="M3890 3876 l0 -33 77 -7 c42 -3 107 -6 145 -6 l68 0 0 -311 0 -310
33 3 32 3 3 307 2 307 148 3 147 3 0 30 0 30 -130 6 c-71 4 -219 7 -327 8
l-198 1 0 -34z"/>
<path d="M4787 3893 c-4 -3 -7 -67 -7 -141 0 -160 10 -191 74 -222 40 -19 60
-20 361 -20 l318 0 -7 -107 c-6 -84 -11 -111 -24 -122 -23 -18 -615 -9 -638
10 -8 6 -14 29 -14 50 0 38 -1 39 -35 39 -35 0 -35 0 -35 -46 0 -40 5 -51 38
-84 36 -36 41 -38 122 -45 47 -4 193 -5 325 -3 348 5 328 -19 333 396 l4 292
-36 0 -36 0 0 -156 0 -157 -331 5 c-270 4 -332 7 -340 19 -5 8 -9 78 -9 157
l0 142 -28 0 c-16 0 -32 -3 -35 -7z"/>
<path d="M6115 3795 c-25 -52 -66 -139 -91 -192 -26 -54 -79 -169 -119 -255
l-73 -158 34 0 c32 0 36 4 73 78 l39 78 254 -3 c139 -3 258 -6 263 -8 6 -1 24
-35 40 -74 28 -70 28 -71 66 -71 l38 0 -29 63 c-47 103 -164 364 -220 492 -29
66 -57 126 -63 133 -6 8 -37 12 -89 12 l-79 0 -44 -95z m221 -92 c86 -196 124
-283 124 -288 0 -7 -176 -6 -318 2 -67 3 -122 10 -122 15 0 4 40 91 89 193
l89 185 45 0 45 0 48 -107z"/>
<path d="M7020 3881 c-136 -14 -143 -31 -144 -356 -1 -242 0 -251 21 -286 38
-61 46 -62 382 -67 202 -3 317 0 341 7 54 16 82 51 88 111 l5 50 -37 0 c-35 0
-36 -1 -36 -40 0 -63 -2 -63 -358 -58 -254 4 -316 8 -323 19 -5 8 -9 129 -9
270 0 227 2 258 17 270 13 11 76 13 332 11 199 -2 319 -7 327 -13 7 -6 14 -27
16 -47 3 -35 5 -37 41 -40 34 -3 37 -1 37 24 0 42 -36 107 -70 128 -27 16 -62
18 -298 21 -147 2 -296 0 -332 -4z"/>
<path d="M2994 2640 c0 -96 2 -136 3 -87 2 48 2 126 0 175 -1 48 -3 8 -3 -88z"/>
<path d="M3540 2749 c0 -45 -3 -58 -12 -53 -10 6 -10 5 -1 -7 8 -10 13 -67 16
-170 2 -131 3 -121 5 69 1 122 0 222 -3 222 -3 0 -5 -27 -5 -61z"/>
<path d="M2774 2680 c0 -69 1 -97 3 -62 2 34 2 90 0 125 -2 34 -3 6 -3 -63z"/>
<path d="M3878 2713 c7 -3 16 -2 19 1 4 3 -2 6 -13 5 -11 0 -14 -3 -6 -6z"/>
<path d="M4148 2713 c7 -3 16 -2 19 1 4 3 -2 6 -13 5 -11 0 -14 -3 -6 -6z"/>
<path d="M5048 2713 c7 -3 16 -2 19 1 4 3 -2 6 -13 5 -11 0 -14 -3 -6 -6z"/>
<path d="M3298 2703 c-2 -5 -1 -60 3 -123 l5 -115 2 123 c2 110 -1 137 -10
115z"/>
<path d="M3794 2560 c0 -85 2 -120 3 -77 2 42 2 112 0 155 -1 42 -3 7 -3 -78z"/>
<path d="M4854 2590 c0 -69 1 -97 3 -62 2 34 2 90 0 125 -2 34 -3 6 -3 -63z"/>
<path d="M6294 2585 c0 -66 1 -92 3 -57 2 34 2 88 0 120 -2 31 -3 3 -3 -63z"/>
<path d="M7628 2693 c-2 -5 -1 -57 3 -118 l5 -110 2 118 c2 105 -1 132 -10
110z"/>
<path d="M7754 2585 c0 -66 1 -92 3 -57 2 34 2 88 0 120 -2 31 -3 3 -3 -63z"/>
<path d="M3403 2590 c0 -36 2 -50 4 -32 2 17 2 47 0 65 -2 17 -4 3 -4 -33z"/>
<path d="M3681 2634 c0 -11 3 -14 6 -6 3 7 2 16 -1 19 -3 4 -6 -2 -5 -13z"/>
<path d="M5772 2630 c0 -14 2 -19 5 -12 2 6 2 18 0 25 -3 6 -5 1 -5 -13z"/>
<path d="M5142 2620 c0 -14 2 -19 5 -12 2 6 2 18 0 25 -3 6 -5 1 -5 -13z"/>
<path d="M4052 2590 c0 -19 2 -27 5 -17 2 9 2 25 0 35 -3 9 -5 1 -5 -18z"/>
<path d="M6393 2585 c0 -22 2 -30 4 -17 2 12 2 30 0 40 -3 9 -5 -1 -4 -23z"/>
<path d="M4648 2603 c12 -2 32 -2 45 0 12 2 2 4 -23 4 -25 0 -35 -2 -22 -4z"/>
<path d="M5638 2593 c29 -2 74 -2 100 0 26 2 2 3 -53 3 -55 0 -76 -1 -47 -3z"/>
<path d="M4352 2555 c0 -16 2 -22 5 -12 2 9 2 23 0 30 -3 6 -5 -1 -5 -18z"/>
<path d="M3681 2554 c0 -11 3 -14 6 -6 3 7 2 16 -1 19 -3 4 -6 -2 -5 -13z"/>
<path d="M4352 2495 c0 -16 2 -22 5 -12 2 9 2 23 0 30 -3 6 -5 -1 -5 -18z"/>
<path d="M3130 2489 c0 -5 5 -7 10 -4 6 3 10 8 10 11 0 2 -4 4 -10 4 -5 0 -10
-5 -10 -11z"/>
<path d="M6841 2484 c0 -11 3 -14 6 -6 3 7 2 16 -1 19 -3 4 -6 -2 -5 -13z"/>
<path d="M7460 2479 c0 -5 5 -7 10 -4 6 3 10 8 10 11 0 2 -4 4 -10 4 -5 0 -10
-5 -10 -11z"/>
<path d="M2154 1940 c0 -69 1 -97 3 -62 2 34 2 90 0 125 -2 34 -3 6 -3 -63z"/>
<path d="M4563 2053 c9 -2 23 -2 30 0 6 3 -1 5 -18 5 -16 0 -22 -2 -12 -5z"/>
<path d="M6118 2053 c7 -3 16 -2 19 1 4 3 -2 6 -13 5 -11 0 -14 -3 -6 -6z"/>
<path d="M7158 2053 c7 -3 16 -2 19 1 4 3 -2 6 -13 5 -11 0 -14 -3 -6 -6z"/>
<path d="M3784 1935 c0 -66 1 -92 3 -57 2 34 2 88 0 120 -2 31 -3 3 -3 -63z"/>
<path d="M3902 1938 c-1 -65 0 -118 2 -118 2 0 10 8 17 17 9 11 9 14 2 10 -9
-6 -13 19 -16 100 l-3 108 -2 -117z"/>
<path d="M6724 1930 c0 -69 1 -97 3 -62 2 34 2 90 0 125 -2 34 -3 6 -3 -63z"/>
<path d="M8090 1875 c0 -93 2 -166 5 -163 8 7 8 318 1 325 -3 4 -6 -69 -6
-162z"/>
<path d="M2311 2004 c0 -11 3 -14 6 -6 3 7 2 16 -1 19 -3 4 -6 -2 -5 -13z"/>
<path d="M4983 1960 c0 -36 2 -50 4 -32 2 17 2 47 0 65 -2 17 -4 3 -4 -33z"/>
<path d="M6904 1915 c0 -60 1 -84 3 -52 2 32 2 81 0 110 -2 29 -3 3 -3 -58z"/>
<path d="M3494 1925 c0 -49 1 -71 3 -48 2 23 2 64 0 90 -2 26 -3 8 -3 -42z"/>
<path d="M2783 1860 c0 -97 2 -123 6 -79 3 37 3 102 0 145 -4 61 -6 46 -6 -66z"/>
<path d="M7252 1960 c0 -14 2 -19 5 -12 2 6 2 18 0 25 -3 6 -5 1 -5 -13z"/>
<path d="M2972 1940 c0 -19 2 -27 5 -17 2 9 2 25 0 35 -3 9 -5 1 -5 -18z"/>
<path d="M3252 1935 c0 -16 2 -22 5 -12 2 9 2 23 0 30 -3 6 -5 -1 -5 -18z"/>
<path d="M6212 1930 c0 -19 2 -27 5 -17 2 9 2 25 0 35 -3 9 -5 1 -5 -18z"/>
<path d="M8282 1930 c0 -19 2 -27 5 -17 2 9 2 25 0 35 -3 9 -5 1 -5 -18z"/>
<path d="M8362 1925 c0 -16 2 -22 5 -12 2 9 2 23 0 30 -3 6 -5 -1 -5 -18z"/>
<path d="M2322 1880 c0 -14 2 -19 5 -12 2 6 2 18 0 25 -3 6 -5 1 -5 -13z"/>
<path d="M3332 1875 c0 -16 2 -22 5 -12 2 9 2 23 0 30 -3 6 -5 -1 -5 -18z"/>
<path d="M7352 1865 c0 -16 2 -22 5 -12 2 9 2 23 0 30 -3 6 -5 -1 -5 -18z"/>
<path d="M2600 1830 c0 -5 5 -10 10 -10 6 0 10 5 10 10 0 6 -4 10 -10 10 -5 0
-10 -4 -10 -10z"/>
<path d="M5510 1820 c0 -5 5 -10 10 -10 6 0 10 5 10 10 0 6 -4 10 -10 10 -5 0
-10 -4 -10 -10z"/>
<path d="M7158 1803 c7 -3 16 -2 19 1 4 3 -2 6 -13 5 -11 0 -14 -3 -6 -6z"/>
<path d="M3484 1310 c0 -52 1 -74 3 -47 2 26 2 68 0 95 -2 26 -3 4 -3 -48z"/>
<path d="M4204 1280 c0 -69 1 -97 3 -62 2 34 2 90 0 125 -2 34 -3 6 -3 -63z"/>
<path d="M4383 1230 l1 -175 5 155 c4 85 3 164 -1 175 -4 11 -6 -59 -5 -155z"/>
<path d="M4940 1280 c0 -68 3 -121 6 -117 7 7 5 229 -2 236 -2 2 -4 -51 -4
-119z"/>
<path d="M6594 1280 c0 -69 1 -97 3 -62 2 34 2 90 0 125 -2 34 -3 6 -3 -63z"/>
<path d="M6772 1278 l3 -123 58 -1 57 -1 -55 4 -55 4 0 54 0 54 63 4 62 3 -62
2 -63 2 0 55 0 54 58 4 57 3 -63 2 -63 2 3 -122z"/>
<path d="M5903 1240 c0 -47 2 -66 4 -42 2 23 2 61 0 85 -2 23 -4 4 -4 -43z"/>
<path d="M4572 1280 c0 -19 2 -27 5 -17 2 9 2 25 0 35 -3 9 -5 1 -5 -18z"/>
<path d="M4653 1275 c0 -22 2 -30 4 -17 2 12 2 30 0 40 -3 9 -5 -1 -4 -23z"/>
<path d="M7032 1275 c0 -16 2 -22 5 -12 2 9 2 23 0 30 -3 6 -5 -1 -5 -18z"/>
<path d="M6262 1270 c0 -14 2 -19 5 -12 2 6 2 18 0 25 -3 6 -5 1 -5 -13z"/>
<path d="M6023 1200 c0 -25 2 -35 4 -22 2 12 2 32 0 45 -2 12 -4 2 -4 -23z"/>
<path d="M3968 1153 c7 -3 16 -2 19 1 4 3 -2 6 -13 5 -11 0 -14 -3 -6 -6z"/>
</g>
</svg>
